<?xml version="1.0" standalone="no"?>
<!DOCTYPE svg PUBLIC "-//W3C//DTD SVG 20010904//EN"
 "http://www.w3.org/TR/2001/REC-SVG-20010904/DTD/svg10.dtd">
<svg version="1.0" xmlns="http://www.w3.org/2000/svg"
 width="160.000000pt" height="160.000000pt" viewBox="0 0 160.000000 160.000000"
 preserveAspectRatio="xMidYMid meet">
<metadata>
Created by potrace 1.14, written by Peter Selinger 2001-2017
</metadata>
<g transform="translate(0.000000,160.000000) scale(0.100000,-0.100000)"
fill="#000000" stroke="none">
<path d="M1026 1493 c-2 -10 -15 -64 -27 -120 l-22 -103 -59 0 c-57 0 -58 0
-52 25 3 14 3 25 0 25 -8 0 -827 -469 -839 -480 -5 -4 40 -88 100 -186 164
-269 175 -288 257 -438 60 -111 77 -136 83 -120 4 10 21 57 39 104 18 47 37
85 43 84 6 -1 53 -2 105 -2 l93 -2 -5 -26 -5 -27 40 24 c310 185 812 496 810
501 -3 10 -549 758 -553 758 -1 0 -5 -8 -8 -17z m164 -239 c168 -232 259 -364
234 -342 -28 24 -50 9 -34 -23 11 -24 11 -24 -9 1 -11 14 -21 28 -21 33 0 12
-30 8 -30 -5 0 -6 19 -40 41 -75 23 -35 40 -65 38 -67 -4 -4 -76 -50 -368
-238 l-153 -99 7 48 c20 143 14 133 145 222 66 45 121 85 124 90 3 4 -24 51
-59 104 -36 53 -65 107 -65 119 0 28 38 249 43 255 3 2 47 -62 98 -142 91
-140 116 -169 107 -122 -7 33 -222 355 -225 337 -2 -8 -16 -89 -32 -180 l-29
-165 59 -92 c32 -50 59 -96 59 -101 0 -16 -48 -43 -55 -32 -4 6 -2 9 3 8 21
-6 7 20 -56 111 l-65 93 48 224 c27 123 51 224 54 224 3 -1 67 -84 141 -186z
m-414 -182 c-29 -106 -55 -194 -57 -196 -4 -3 -128 -82 -204 -131 -43 -27 -53
-30 -73 -19 -22 11 -17 16 105 98 l128 87 37 121 c21 67 36 123 35 124 -6 6
-155 -90 -182 -118 l-30 -30 32 16 c18 9 55 30 83 46 27 16 50 26 50 22 0 -4
-11 -41 -23 -82 l-23 -75 -129 -88 c-72 -48 -139 -94 -150 -101 -18 -12 -16
-18 54 -126 l73 -113 -23 -79 c-13 -43 -26 -78 -30 -78 -3 0 -36 51 -72 113
-35 61 -94 162 -130 224 l-66 112 89 52 c82 48 147 99 124 99 -5 0 -61 -29
-124 -65 -63 -35 -117 -60 -120 -55 -3 4 -16 10 -30 11 -20 3 19 30 185 128
246 145 519 300 522 297 2 -2 -21 -89 -51 -194z m184 147 c0 -5 -5 -8 -11 -6
-7 1 -19 -29 -29 -73 -9 -41 -20 -88 -24 -103 -4 -19 -3 -26 4 -22 5 3 10 4
10 1 0 -4 -108 -83 -136 -99 -9 -5 68 291 81 312 5 10 105 0 105 -10z m8 -324
c29 -41 52 -78 52 -82 -1 -5 -90 -69 -200 -144 l-199 -137 -55 84 -56 83 198
135 c108 74 199 135 202 135 3 1 29 -33 58 -74z m86 -136 c-3 -5 -10 -7 -15
-3 -5 3 -7 10 -3 15 3 5 10 7 15 3 5 -3 7 -10 3 -15z m-30 -20 c-3 -5 -10 -7
-15 -3 -5 3 -7 10 -3 15 3 5 10 7 15 3 5 -3 7 -10 3 -15z m-244 -272 l-33
-145 -36 -6 c-65 -11 -151 -7 -151 6 0 24 53 153 69 171 21 22 175 126 180
121 2 -2 -11 -68 -29 -147z"/>
<path d="M1095 810 c-3 -5 -1 -10 4 -10 6 0 11 5 11 10 0 6 -2 10 -4 10 -3 0
-8 -4 -11 -10z"/>
</g>
</svg>
