<svg width="60" height="61" viewBox="0 0 60 61" fill="none" xmlns="http://www.w3.org/2000/svg">
<path d="M41.6631 33.5733L44.9961 33.5297C45.4381 33.5239 45.862 33.3428 46.1745 33.0261C46.487 32.7095 46.6626 32.2833 46.6626 31.8412C46.6626 31.3992 46.487 30.9776 46.1745 30.6691C45.862 30.3606 45.4381 30.1906 44.9961 30.1964L41.6631 30.24V28.5733C41.6483 27.8057 41.5306 27.0449 41.3131 26.3113C42.8796 25.6901 44.2283 24.6129 45.1828 23.2206C46.1372 21.8284 46.653 20.1858 46.6626 18.5079C46.6626 18.0659 46.487 17.6442 46.1745 17.3358C45.862 17.0273 45.4381 16.8573 44.9961 16.863C44.5541 16.8688 44.1302 17.05 43.8177 17.3666C43.5052 17.6833 43.3296 18.1095 43.3296 18.5515C43.3281 19.6263 42.9804 20.6765 42.338 21.5465C41.6957 22.4165 40.7928 23.06 39.7632 23.3815C38.9413 22.3389 37.8782 21.5126 36.6635 20.9721C36.6807 20.75 36.6807 20.5271 36.6635 20.3055C36.6635 18.5373 35.9612 16.8508 34.711 15.617C33.4609 14.3831 31.7653 13.7029 29.9974 13.7261C28.2294 13.7492 26.5339 14.4738 25.2837 15.7404C24.0336 17.007 23.3313 18.7119 23.3313 20.48C23.314 20.7021 23.314 20.925 23.3313 21.1467C22.0924 21.7101 21.0056 22.5652 20.1649 23.6381C19.1478 23.3315 18.2596 22.7064 17.6299 21.8541C17.0003 21.0018 16.6623 19.9669 16.6652 18.9006C16.6652 18.4586 16.4896 18.0369 16.1771 17.7285C15.8646 17.42 15.4407 17.2499 14.9987 17.2557C14.5567 17.2615 14.1328 17.4427 13.8203 17.7593C13.5077 18.076 13.3322 18.5022 13.3322 18.9442C13.3418 20.6219 13.8575 22.2509 14.812 23.6182C15.7665 24.9855 17.1152 26.0274 18.6817 26.6075C18.4642 27.3469 18.3465 28.1108 18.3317 28.8788V30.5454L14.9987 30.5891C14.5567 30.5948 14.1328 30.776 13.8203 31.0926C13.5077 31.4093 13.3322 31.8355 13.3322 32.2775C13.3322 32.7196 13.5077 33.1412 13.8203 33.4497C14.1328 33.7581 14.5567 33.9282 14.9987 33.9224L18.3317 33.8788V35.5454C18.3332 36.3179 18.4113 37.0873 18.565 37.8424C17.0256 38.4795 15.7053 39.5591 14.7731 40.943C13.8409 42.327 13.3392 43.9522 13.3322 45.6109C13.3322 46.0529 13.5077 46.4745 13.8203 46.783C14.1328 47.0915 14.5567 47.2615 14.9987 47.2557C15.4407 47.2499 15.8646 47.0688 16.1771 46.7521C16.4896 46.4355 16.6652 46.0093 16.6652 45.5672C16.6697 44.5952 16.9574 43.6417 17.4931 42.8237C18.0289 42.0056 18.7894 41.3583 19.6816 40.9611C20.6727 42.8252 22.1571 44.3768 23.9748 45.4489C25.7926 46.5209 27.8749 47.0728 29.9974 47.045C32.1199 47.0172 34.2022 46.4109 36.0199 45.2912C37.8377 44.1715 39.3221 42.581 40.3132 40.691C41.2054 41.0649 41.9659 41.6922 42.5016 42.4963C43.0374 43.3003 43.3251 44.2462 43.3296 45.2182C43.3296 45.6602 43.5052 46.0818 43.8177 46.3903C44.1302 46.6988 44.5541 46.8688 44.9961 46.863C45.4381 46.8573 45.862 46.6761 46.1745 46.3595C46.487 46.0428 46.6626 45.6166 46.6626 45.1746C46.6556 43.5161 46.1539 41.904 45.2217 40.5444C44.2894 39.1849 42.9691 38.1399 41.4297 37.5431C41.5835 36.784 41.6616 36.0125 41.6631 35.24V33.5733ZM28.3309 43.5812C26.4488 43.2216 24.7572 42.221 23.5424 40.7487C22.3277 39.2764 21.6644 37.4229 21.6648 35.5018V28.8351C21.6648 27.5091 22.1915 26.2304 23.1291 25.2804C24.0667 24.3305 25.3384 23.787 26.6643 23.7697L28.3309 23.7479V43.5812ZM26.6643 20.4364C26.6643 19.5523 27.0155 18.6999 27.6406 18.0666C28.2656 17.4332 29.1134 17.071 29.9974 17.0594C30.8814 17.0478 31.7291 17.3879 32.3542 18.0048C32.9793 18.6218 33.3304 19.465 33.3304 20.3491L26.6643 20.4364ZM38.33 35.2836C38.3304 37.2047 37.6671 39.0756 36.4523 40.5797C35.2376 42.0838 33.546 43.1287 31.6639 43.5376V23.7042L33.3304 23.6824C34.6564 23.6651 35.9281 24.1752 36.8657 25.1006C37.8033 26.026 38.33 27.2909 38.33 28.617V35.2836Z" fill="#0FA958"/>
<rect width="60" height="60" rx="30" transform="matrix(0.999914 -0.0130896 0 1 0 0.7854)" fill="#C0FFDE"/>
<g clip-path="url(#clip0_476_400)">
<path d="M35.6881 19.3232V19.5527C35.6881 20.5673 34.8695 21.3966 33.8576 21.4099L25.1433 21.524C24.1313 21.5372 23.2548 20.73 23.2548 19.7154V19.486C23.2548 16.0683 26.0263 13.2615 29.4424 13.2168C32.9165 13.1713 35.6881 15.9055 35.6881 19.3232ZM15.6665 20.1912C16.4722 19.3736 17.778 19.3565 18.5837 20.153L22.7069 24.2245C22.752 24.2626 22.7907 24.3072 22.8294 24.3518C23.7511 23.8692 24.7888 23.5913 25.833 23.5777L33.1099 23.4824C34.2121 23.468 35.2498 23.7187 36.1715 24.1772C36.2102 24.1315 36.2488 24.0859 36.294 24.0467L40.4191 19.8672C41.2248 19.0496 42.5267 19.0326 43.3324 19.8291C44.1381 20.6243 44.1381 21.9264 43.3324 22.7427L39.2073 26.9221C39.1106 26.9685 39.1235 27.007 39.0784 27.0463C39.4716 27.8147 39.723 28.6751 39.7939 29.5831L43.9383 29.5288C45.0792 29.5139 46.0009 30.4236 46.0009 31.5646C46.0009 32.7055 45.0792 33.6394 43.9383 33.6543L39.8132 33.7083C39.8132 35.294 39.4587 36.7942 38.8206 38.1433C38.9559 38.2253 39.0913 38.3267 39.2073 38.4476L43.3324 42.5191C44.1381 43.3143 44.1381 44.6164 43.3324 45.4327C42.5267 46.249 41.2248 46.266 40.4191 45.4708L36.352 41.4631C34.7728 42.889 32.7554 43.8436 30.5317 44.0919V28.673C30.5317 28.1057 30.0676 27.6477 29.4424 27.6559C28.9332 27.6625 28.4111 28.1335 28.4111 28.7007V44.1197C26.2455 43.9288 24.228 43.027 22.6489 41.6425L18.5837 45.7567C17.778 46.573 16.4722 46.5901 15.6665 45.7949C14.8615 44.9996 14.8615 43.6975 15.6665 42.8813L19.7935 38.7018C19.9096 38.5778 20.0449 38.4729 20.1803 38.3873C19.5422 37.0549 19.1877 35.564 19.1877 33.9783L15.0626 34.0323C13.9236 34.0472 13 33.1375 13 31.9966C13 30.8556 13.9236 29.9218 15.0626 29.9069L19.207 29.8526C19.2766 28.9428 19.5293 28.0757 19.9224 27.297C19.8773 27.259 19.8322 27.2209 19.7935 27.1763L15.6665 23.1048C14.8615 22.3096 14.8615 21.0075 15.6665 20.1912Z" fill="#0FA958"/>
</g>
<defs>
<clipPath id="clip0_476_400">
<rect width="33.0037" height="33.0037" fill="white" transform="matrix(0.999914 -0.0130896 0 1 13 13.432)"/>
</clipPath>
</defs>
</svg>
