<svg width="60" height="61" viewBox="0 0 60 61" fill="none" xmlns="http://www.w3.org/2000/svg">
<path d="M14.9854 29.8427C14.9854 27.816 15.3853 25.8641 16.1719 24.0005C16.9585 22.1368 18.0384 20.536 19.3716 19.1719C20.7049 17.8078 22.3047 16.7202 24.1579 15.9092C26.0111 15.0983 27.9442 14.673 29.9841 14.6463C32.0239 14.6196 33.9571 14.9943 35.8102 15.7567C37.6634 16.5191 39.2633 17.5782 40.6098 18.8939C41.9564 20.2096 43.023 21.7956 43.8095 23.6387C44.5961 25.4817 44.9961 27.4098 44.9961 29.4498C44.9961 31.4898 44.5961 33.4284 43.8095 35.292C43.023 37.1556 41.943 38.7698 40.6098 40.1339C39.2766 41.498 37.6767 42.5856 35.8102 43.3967C33.9437 44.2078 32.0106 44.6331 29.9841 44.6596C27.9576 44.6862 26.0111 44.3116 24.1579 43.5492C22.3047 42.7868 20.7182 41.7276 19.3716 40.4119C18.0251 39.0962 16.9585 37.5102 16.1719 35.6538C15.3853 33.7974 14.9854 31.8827 14.9854 29.8427ZM16.5852 29.8217C16.5852 31.6484 16.9452 33.377 17.6518 35.0211C18.3584 36.6652 19.3183 38.0793 20.5182 39.2636C21.7181 40.4478 23.1447 41.3758 24.7978 42.0742C26.451 42.7726 28.1842 43.0965 29.9974 43.0728C30.344 43.0683 30.6107 43.0648 30.784 43.0492C31.8106 41.2624 32.5172 39.2531 32.8772 37.0218C33.2371 34.7904 33.4371 32.3211 33.4371 29.6144C33.4371 24.2678 32.5305 19.813 30.7173 16.2767C30.5707 16.2653 30.3307 16.2684 29.9974 16.2728C28.1842 16.2965 26.451 16.6792 24.7978 17.4075C23.1447 18.1358 21.7181 19.0878 20.5182 20.3036C19.3183 21.5193 18.3717 22.9583 17.6518 24.6211C16.9319 26.2838 16.5852 28.0217 16.5852 29.8217Z" fill="black"/>
<rect width="60" height="60" rx="30" transform="matrix(0.999914 -0.0130896 0 1 0 0.7854)" fill="#454545"/>
<path d="M34.3073 46.8311L34.7648 47.6869C42.3899 45.4973 47.9959 38.4483 47.9959 30.1571C47.9959 21.8659 42.3899 14.9638 34.7648 12.9738L34.3073 13.8416C37.6988 16.7041 40.1215 22.9168 40.1215 30.2602C40.1215 37.6037 37.6988 43.8798 34.3073 46.8311ZM11.749 30.6316C11.749 20.5528 19.9194 12.2747 29.9974 12.1428C40.0754 12.0108 48.2459 20.075 48.2459 30.1539C48.2459 40.2327 40.0754 48.5108 29.9974 48.6428C19.9194 48.7747 11.749 40.7105 11.749 30.6316Z" fill="white" stroke="white"/>
</svg>
