<svg width="60" height="61" viewBox="0 0 60 61" fill="none" xmlns="http://www.w3.org/2000/svg">
<rect width="60" height="60" rx="30" transform="matrix(0.999914 -0.0130896 0 1 0 0.7854)" fill="#CCE5F7"/>
<g clip-path="url(#clip0_476_406)">
<path d="M37.142 23.2712C36.4458 22.9055 34.5707 22.662 33.3384 22.7315C32.1067 22.8016 31.3565 21.4183 31.3565 21.4183C30.778 22.2937 31.154 23.2004 31.7422 23.9321C32.4828 24.8526 33.5569 25.4506 34.7185 25.688C38.2516 26.4113 38.4277 27.1117 38.4277 27.1117L38.3023 28.9507C40.8043 29.9145 41.2658 31.7779 41.4458 32.4133L38.6443 32.4551C40.875 33.9959 41.4252 37.1555 41.4252 37.1555L39.7134 37.3811C39.606 39.3112 37.4634 42.5003 34.5707 44.5202C31.6779 46.5401 33.1243 49.5215 33.1243 49.5215C33.1243 49.5215 29.428 45.2304 34.5707 40.6629C39.7134 36.0953 34.9455 31.0146 34.9455 31.0146C35.9637 38.716 32.1067 40.427 32.1067 40.427C27.0707 41.5113 26.696 38.3551 26.696 38.3551L29.1066 39.2345C34.5707 39.5912 29.214 32.1074 29.214 32.1074C23.2137 28.704 20.4283 33.7762 20.1603 32.8688C19.8929 31.9619 21.1785 29.8017 21.1785 29.8017C19.9996 29.0675 14.2141 31.8755 14.2141 31.8755C13.7859 31.1843 18.8746 28.0106 18.8746 28.0106C17.9644 26.7367 14 26.7886 14 26.7886C14 26.7886 16.5713 22.8976 23.107 24.8481L31.3565 29.7758C31.3565 29.7758 27.0257 25.412 26.2138 22.1285C25.391 18.8014 27.8968 16.6464 27.4995 16.9685L25.3589 14.2116C26.6079 13.8596 27.6512 14.683 28.0151 14.9566L27.0007 11.6777C28.609 11.7344 29.437 13.0074 29.7308 13.4356L30.7137 11.1405L33.2317 13.3576C33.2317 13.3576 34.5707 12.3757 35.1602 13.4931C35.749 14.6104 37.142 16.8423 39.1239 17.1912C41.1064 17.5407 40.0881 19.6967 40.0881 19.6967C40.0881 19.6967 37.142 18.771 35.8564 18.7878C34.5707 18.8046 34.0886 19.8286 34.0886 19.8286C34.0886 19.8286 33.9279 19.4559 36.4992 20.7081C39.0705 21.9602 37.142 23.2712 37.142 23.2712Z" fill="#007094" stroke="#007094" stroke-width="1.11111" stroke-miterlimit="10" stroke-linecap="round" stroke-linejoin="round"/>
</g>
<defs>
<clipPath id="clip0_476_406">
<rect width="40" height="40" fill="white" transform="matrix(0.999914 -0.0130896 0 1 9.99915 10.6544)"/>
</clipPath>
</defs>
</svg>
