<svg width="60" height="61" viewBox="0 0 60 61" fill="none" xmlns="http://www.w3.org/2000/svg">
<rect width="60" height="60" rx="30" transform="matrix(0.999914 -0.0130896 0 1 0 0.7854)" fill="#FEFFC0"/>
<g clip-path="url(#clip0_476_535)">
<path d="M42.0896 15.2273C42.053 15.1459 41.9933 15.0771 41.9178 15.0294C41.8424 14.9818 41.7544 14.9573 41.6646 14.959L28.5082 15.1312C28.4292 15.1324 28.3514 15.1533 28.2821 15.1922C28.2128 15.2311 28.1542 15.2866 28.1115 15.3536L17.9963 31.5434C17.9476 31.614 17.9191 31.6963 17.914 31.7815C17.909 31.8666 17.9275 31.9512 17.9675 32.0258C18.0076 32.1005 18.0676 32.1624 18.141 32.2047C18.2144 32.2471 18.2983 32.2681 18.3835 32.2656L25.6276 32.1708L19.2335 44.7698C19.1968 44.8447 19.1795 44.9274 19.1834 45.0103C19.1872 45.0931 19.2119 45.1734 19.2553 45.2436C19.2987 45.3138 19.3593 45.3716 19.4315 45.4116C19.5036 45.4516 19.585 45.4726 19.668 45.4725L22.5014 45.4354C22.5669 45.435 22.6318 45.4209 22.692 45.3941C22.7522 45.3673 22.8062 45.3284 22.8508 45.2797L39.4451 27.1255C39.511 27.0575 39.5553 26.9716 39.5724 26.8789C39.5895 26.7861 39.5786 26.6908 39.541 26.605C39.5035 26.5192 39.441 26.447 39.3617 26.3975C39.2823 26.348 39.1897 26.3235 39.0957 26.3272L32.73 26.4105L42.0141 15.7289C42.0739 15.6611 42.113 15.5775 42.1264 15.4884C42.1398 15.3993 42.127 15.3086 42.0896 15.2273Z" fill="#FFD233"/>
</g>
<defs>
<clipPath id="clip0_476_535">
<rect width="34.0038" height="34.0038" fill="white" transform="matrix(0.999914 -0.0130896 0 1 13 13.4451)"/>
</clipPath>
</defs>
</svg>
