<svg width="60" height="61" viewBox="0 0 60 61" fill="none" xmlns="http://www.w3.org/2000/svg">
<rect width="60" height="60" rx="30" transform="matrix(0.999914 -0.0130896 0 1 0 0.7854)" fill="#FFEAFF"/>
<path d="M31.2473 24.0481V19.1262C31.2473 18.7947 31.1157 18.4785 30.8813 18.2471C30.6469 18.0158 30.3289 17.8882 29.9975 17.8926C29.666 17.8969 29.348 18.0328 29.1136 18.2703C28.8792 18.5077 28.7476 18.8274 28.7476 19.1589V24.0808C29.2139 24.7035 29.6318 25.3614 29.9975 26.0488C30.3631 25.3518 30.781 24.683 31.2473 24.0481Z" fill="#FFB8F8"/>
<path d="M46.1523 18.0562C45.5742 17.3137 44.4806 16.4531 42.4964 16.479C39.8872 16.5132 36.5438 18.3226 33.5596 21.3304C32.7195 22.1751 31.9463 23.0838 31.2473 24.0482V37.2513C31.2473 37.5828 31.1157 37.9025 30.8813 38.14C30.6469 38.3775 30.3289 38.5133 29.9975 38.5177C29.666 38.522 29.348 38.3945 29.1136 38.1631C28.8792 37.9318 28.7476 37.6155 28.7476 37.284V24.0809C28.0486 23.1349 27.2754 22.2464 26.4353 21.4237C23.4511 18.494 20.1077 16.7721 17.4985 16.8063C15.5143 16.8322 14.4207 17.7216 13.8426 18.4791C12.7802 19.8524 11.9365 22.2697 13.7801 29.6518C14.8113 33.7477 17.2173 35.06 19.014 35.4427C18.5779 36.1725 18.2931 36.9812 18.177 37.82C18.0609 38.6588 18.1158 39.5102 18.3384 40.3228C18.561 41.1353 18.9467 41.892 19.4722 42.5473C19.9976 43.2025 20.6519 43.7425 21.3955 44.1348C22.139 44.527 22.9564 44.7632 23.7981 44.8292C24.6398 44.8951 25.4884 44.7894 26.2925 44.5185C27.0966 44.2476 27.8395 43.817 28.4763 43.2529C29.1132 42.6887 29.6306 42.0027 29.9975 41.2364C30.3643 41.9931 30.8817 42.6656 31.5186 43.213C32.1554 43.7605 32.8983 44.1716 33.7024 44.4215C34.5065 44.6714 35.3551 44.7549 36.1968 44.6669C37.0385 44.5789 37.8559 44.3212 38.5994 43.9095C39.343 43.4979 39.9973 42.9407 40.5227 42.2717C41.0482 41.6027 41.4339 40.8359 41.6565 40.0175C41.8791 39.1991 41.934 38.3463 41.8179 37.5105C41.7018 36.6748 41.417 35.8735 40.9809 35.1551C42.7776 34.7254 45.1837 33.3501 46.2148 29.2272C47.246 25.1044 48.0584 20.4687 46.1523 18.0562Z" fill="#FFB8F8"/>
</svg>
