<svg width="60" height="61" viewBox="0 0 60 61" fill="none" xmlns="http://www.w3.org/2000/svg">
<rect width="60" height="60" rx="30" transform="matrix(0.999914 -0.0130896 0 1 0 0.7854)" fill="#C9A685"/>
<g clip-path="url(#clip0_476_415)">
<path d="M29.5005 24.8689V15.2615C29.5005 14.1176 28.5742 13.202 27.429 13.217C26.2839 13.2319 25.3575 14.1718 25.3575 15.3157V24.6383L27.9469 24.6044C28.4971 24.5972 29.015 24.7005 29.5005 24.8689ZM23.286 24.6654V17.4145C23.286 16.2706 22.3597 15.355 21.2145 15.37C20.0694 15.385 19.143 16.3248 19.143 17.4688V24.7714C19.3152 24.7498 19.4835 24.7152 19.6609 24.7129L23.286 24.6654ZM33.6435 25.5657C34.7887 25.5507 35.715 24.6108 35.715 23.4669V17.2518C35.715 16.1079 34.7887 15.1923 33.6435 15.2073C32.4984 15.2223 31.572 16.1621 31.572 17.3061V23.5211C31.572 24.667 32.4977 25.5807 33.6435 25.5657ZM39.858 19.2693C38.7129 19.2843 37.7865 20.2241 37.7865 21.3681V25.5114C37.7865 26.6554 38.7129 27.571 39.858 27.556C41.0032 27.541 41.9295 26.6005 41.9295 25.4559V21.3138C41.9295 20.1679 41.0038 19.2543 39.858 19.2693ZM37.7153 29.0213C36.9062 28.5345 36.292 27.7827 35.9752 26.8914C35.3072 27.3501 34.5045 27.6196 33.6435 27.6309C33.1489 27.6373 32.6809 27.5462 32.2414 27.393C32.42 27.9511 32.6078 28.5637 32.6078 29.2046C32.6078 31.7794 30.5201 33.8932 27.9469 33.9269L23.286 33.9879C22.714 33.9954 22.2503 33.5377 22.2503 32.9657C22.2503 32.396 22.7164 31.9237 23.286 31.9163L27.9469 31.8553C29.3769 31.8365 30.5363 30.6619 30.5363 29.2318C30.5363 27.8017 29.3775 26.6573 27.9469 26.6761L19.6609 26.7845C18.2309 26.8033 17.0715 27.9773 17.0715 29.408V33.5132C17.0715 35.658 18.1073 37.6792 19.8428 38.9235L23.286 41.3812V46.418L37.7865 46.2282V40.7195C40.2658 39.1274 41.9295 36.3652 41.9295 33.2266V29.0244C41.321 29.3884 40.6154 29.6177 39.858 29.6277C39.0618 29.6381 38.3368 29.4016 37.7153 29.0213Z" fill="#7D420A"/>
</g>
<defs>
<clipPath id="clip0_476_415">
<rect width="29.0035" height="33.1468" fill="white" transform="matrix(0.999914 -0.0130896 0 1 15 13.3796)"/>
</clipPath>
</defs>
</svg>
