<svg width="60" height="62" viewBox="0 0 60 62" fill="none" xmlns="http://www.w3.org/2000/svg">
<rect width="60" height="60" rx="30" transform="matrix(0.999914 -0.0130896 0 1 0 1.69556)" fill="#FFDFDF"/>
<g clip-path="url(#clip0_309_146)">
<path d="M22.7194 51.3981C14.5247 46.8866 12.3672 42.5429 13.6007 36.5558C14.5113 32.1348 17.4931 28.5086 17.779 24.1043C19.0527 26.4058 19.585 28.0704 19.7273 30.4909C23.7784 25.4741 26.4554 18.5674 26.6139 11.3472C26.6139 11.3472 37.1655 17.4094 37.8579 26.766C38.7663 24.8236 39.2235 21.7517 38.3152 19.7765C41.0402 21.728 56.99 39.16 36.1547 51.2223C40.072 43.5431 37.1653 33.2887 30.3639 28.6241C30.8182 30.6622 30.0218 38.296 27.0128 41.6852C27.8466 36.0771 26.2196 33.7316 26.2196 33.7316C26.2196 33.7316 25.6611 36.8741 23.4945 40.0695C21.516 42.9874 20.1452 46.0749 22.7194 51.3981Z" fill="#FD5152"/>
</g>
<defs>
<clipPath id="clip0_309_146">
<rect width="40" height="40" fill="white" transform="matrix(0.999914 -0.0130896 0 1 9.99915 11.5647)"/>
</clipPath>
</defs>
</svg>
