<svg width="60" height="61" viewBox="0 0 60 61" fill="none" xmlns="http://www.w3.org/2000/svg">
<rect width="60" height="60" rx="30" transform="matrix(0.999914 -0.0130896 0 1 0 0.7854)" fill="#BAE6FF"/>
<g clip-path="url(#clip0_476_423)">
<path d="M42.2822 28.6351L35.2586 31.5671L40.9708 31.4923C40.5039 32.3976 39.9844 33.2782 39.4044 34.1172L31.3817 37.431L36.5677 37.3631C32.9747 40.6019 27.8426 42.3422 20.5526 40.7712L16.4274 44.9507C15.8595 45.5261 14.9403 45.5378 14.3724 44.9776C13.8047 44.4173 13.8047 43.4978 14.3724 42.9224L29.7154 27.3772C30.0088 26.9934 29.9965 26.4538 29.648 26.1095C29.2696 25.736 28.6562 25.7441 28.2784 26.1275L18.0699 36.4705C15.4871 17.8985 36.2153 14.6066 42.9967 14.0314C44.1393 13.9345 45.0802 14.8634 44.9978 16.0065C44.8011 18.758 44.1835 23.8083 42.2822 28.6351Z" fill="#E6F6FF"/>
</g>
<defs>
<clipPath id="clip0_476_423">
<rect width="31.0035" height="31.0035" fill="white" transform="matrix(0.999914 -0.0130896 0 1 14 14.4059)"/>
</clipPath>
</defs>
</svg>
