<svg width="60" height="61" viewBox="0 0 60 61" fill="none" xmlns="http://www.w3.org/2000/svg">
<rect width="60" height="60" rx="30" transform="matrix(0.999914 -0.0130896 0 1 0 0.7854)" fill="#454545"/>
<g clip-path="url(#clip0_476_582)">
<path d="M29.9974 10.3927C27.0177 10.4318 24.724 11.2433 23.075 12.5511C21.4259 13.8573 20.4783 15.5989 19.806 17.2092C19.1337 18.818 18.703 20.3544 18.2677 21.4601C17.8323 22.5658 17.4724 22.9952 17.1616 23.1085C12.9281 24.6624 9.99915 28.3776 9.99915 33.2022C9.99839 33.5943 10.1473 33.9698 10.4155 34.2523C10.6837 34.5347 11.0509 34.7026 11.4421 34.7218C13.3758 34.7996 14.3065 35.2412 14.8064 35.687C15.3064 36.1343 15.5356 36.7313 15.6725 37.5526C15.8079 38.3723 15.8217 39.3352 16.0079 40.3836C16.1017 40.907 16.2294 41.4607 16.5847 42.0114C16.9416 42.5606 17.5708 43.0631 18.2677 43.2863C19.8983 43.8096 20.9397 44.1329 21.5843 44.4937C22.2304 44.8544 22.6135 45.1771 23.1226 46.252C23.6088 47.2733 24.2672 48.3908 25.4301 49.2033C26.5931 50.0142 28.1684 50.4413 30.142 50.3909C33.3741 50.3085 35.3031 48.611 36.2954 47.1365C36.7907 46.4007 37.1399 45.7608 37.4491 45.3429C37.7568 44.925 37.9414 44.7611 38.266 44.6599C40.3704 43.9985 41.7057 42.8456 42.4487 41.5759C43.1901 40.3047 43.3871 39.099 43.6024 38.2439C43.8178 37.3872 43.9501 37.0132 44.4193 36.6947C44.8885 36.3747 46.0053 36.0186 48.362 36.1139C48.5719 36.1242 48.7822 36.0913 48.98 36.0172C49.1778 35.9432 49.3589 35.8296 49.512 35.6834C49.6651 35.5372 49.787 35.3616 49.8702 35.1673C49.9534 34.9731 49.9961 34.7643 49.9957 34.554C49.9957 32.4325 50.0265 29.9706 49.082 27.6906C48.1374 25.4107 46.0484 23.478 42.5441 22.7285C42.5071 22.7198 42.4641 22.7449 42.3041 22.5393C42.1441 22.3353 41.9426 21.9287 41.7272 21.393C41.2965 20.3218 40.8334 18.7571 40.1412 17.1353C39.4489 15.5136 38.4629 13.7758 36.823 12.4665C35.1847 11.1587 32.928 10.3544 29.9974 10.3927ZM29.9974 13.4697C32.3634 13.4387 33.814 14.0289 34.9016 14.8962C35.9877 15.7636 36.7169 16.9956 37.3045 18.374C37.8937 19.7509 38.309 21.2532 38.8428 22.5846C39.1105 23.2504 39.3982 23.8666 39.852 24.4468C40.3058 25.0255 41.0211 25.5854 41.8718 25.7665C44.6577 26.3608 45.6299 27.4435 46.2453 28.9308C46.7052 30.0371 46.6852 31.6204 46.7268 33.1553C45.0838 33.2537 43.7086 33.5071 42.7363 34.1675C41.4088 35.0711 40.8903 36.4471 40.6211 37.5137C40.3519 38.5787 40.1719 39.4426 39.8043 40.0721C39.4366 40.7 38.9121 41.2484 37.3522 41.7395C36.2569 42.0831 35.4693 42.8457 34.9493 43.5495C34.4294 44.2517 34.114 44.9419 33.7463 45.4883C33.0126 46.581 32.4818 47.2525 30.0943 47.3146C28.5822 47.3543 27.7684 47.0696 27.2084 46.6785C26.65 46.2889 26.2916 45.7197 25.9116 44.917C25.224 43.4706 24.2595 42.4171 23.1226 41.7812C21.9858 41.1453 20.7998 40.8455 19.2291 40.3414C19.143 40.3133 19.2076 40.3832 19.1814 40.342C19.1098 40.1738 19.0611 39.9965 19.0368 39.8147C18.9292 39.2069 18.8953 38.1489 18.6999 36.9837C18.5061 35.817 18.0431 34.4462 16.8739 33.4015C16.0048 32.6252 14.7403 32.1679 13.2204 31.9108C13.6204 28.9902 15.3264 27.0248 18.1723 25.9799C19.8029 25.3816 20.6105 23.9495 21.152 22.5762C21.6935 21.2015 22.0781 19.6764 22.6427 18.326C23.2057 16.9755 23.9226 15.8292 24.9979 14.9767C26.0732 14.1257 27.5407 13.5018 29.9974 13.4697ZM26.1516 19.6739C24.8779 19.6905 23.8441 21.081 23.8441 22.781C23.8441 24.481 24.8779 25.8444 26.1516 25.8277C27.4253 25.811 28.4591 24.4206 28.4591 22.7206C28.4591 21.0206 27.4253 19.6572 26.1516 19.6739ZM32.3049 19.5933C31.0312 19.61 29.9974 21.0004 29.9974 22.7004C29.9974 24.4004 31.0312 25.7638 32.3049 25.7472C33.5787 25.7305 34.6124 24.34 34.6124 22.64C34.6124 20.94 33.5787 19.5766 32.3049 19.5933Z" fill="#F8F8F8"/>
</g>
<defs>
<clipPath id="clip0_476_582">
<rect width="40" height="40" fill="white" transform="matrix(0.999914 -0.0130896 0 1 9.99915 10.6545)"/>
</clipPath>
</defs>
</svg>
