<svg width="60" height="61" viewBox="0 0 60 61" fill="none" xmlns="http://www.w3.org/2000/svg">
<rect width="60" height="60" rx="30" transform="matrix(0.999914 -0.0130896 0 1 0 0.7854)" fill="#C0FFDE"/>
<g clip-path="url(#clip0_476_396)">
<path d="M16.7528 37.3317C16.5402 36.8219 16.2754 36.3158 16.198 35.7638C15.1779 28.6468 20.9948 22.7897 26.2745 20.5248C31.554 18.2599 37.633 21.6731 41.237 17.8767C42.1374 16.8481 43.0538 15.8733 44.4228 15.8482C44.9935 15.869 45.4686 16.131 45.7115 16.601C50.2163 25.7697 43.7801 36.7954 36.512 40.7782C31.8995 43.1186 27.1266 43.6827 22.6591 42.1946C21.4167 41.9161 20.421 40.6298 19.1332 40.6297C18.2451 41.1397 17.5076 42.773 16.9049 43.675C16.203 44.9025 14.8053 45.2429 13.7996 44.19C10.8665 41.3375 16.9621 38.692 16.7528 37.3317ZM20.6725 36.099C21.3024 36.5997 22.2111 36.4436 22.6949 35.9294C26.5628 31.1918 31.8003 29.067 37.4964 29.1486C38.3357 29.1863 38.9458 28.4986 38.9998 27.7686C39.0166 26.9023 38.3502 26.3253 37.6037 26.2833C30.7193 25.9907 24.7465 29.1047 20.5292 34.0604C19.9951 34.7344 20.092 35.6208 20.6725 36.099Z" fill="#29C774"/>
</g>
<defs>
<clipPath id="clip0_476_396">
<rect width="34.2094" height="34.2094" fill="white" transform="matrix(0.999914 -0.0130896 0 1 13 13.4479)"/>
</clipPath>
</defs>
</svg>
