<svg width="60" height="61" viewBox="0 0 60 61" fill="none" xmlns="http://www.w3.org/2000/svg">
<rect width="60" height="60" rx="30" transform="matrix(0.999914 -0.0130896 0 1 0 0.7854)" fill="#C9B496"/>
<path d="M43.9763 28.9936C44.0546 29.0954 44.103 29.2173 44.116 29.3457C44.1289 29.4742 44.106 29.6042 44.0498 29.7213L41.3244 35.4008C41.2771 35.499 41.2079 35.5852 41.1222 35.6526C41.0365 35.72 40.9365 35.7669 40.8302 35.7895L33.2727 37.3849C33.1764 37.405 33.0772 37.4048 32.9815 37.3844C32.8858 37.364 32.7957 37.3237 32.717 37.2662L16.2804 25.1774C16.2049 25.1218 16.1416 25.0515 16.0943 24.9705C16.047 24.8895 16.0167 24.7995 16.0052 24.7061C15.9937 24.6126 16.0013 24.5175 16.0274 24.4265C16.0535 24.3356 16.0977 24.2506 16.1572 24.1767L17.8636 22.0565C17.9258 21.9792 18.0036 21.9156 18.0918 21.8701L30.9035 15.2474C31.046 15.1746 31.2082 15.1516 31.364 15.1818L34.037 15.7117C34.1282 15.7297 34.2146 15.7658 34.2912 15.818C34.3678 15.8701 34.4329 15.9372 34.4828 16.0153L36.3537 18.8914L37.4875 20.6195L43.9763 28.9936Z" fill="#BD8145"/>
<path d="M23.614 43.9664L37.6793 43.7823L33.1502 36.7152L16.7907 24.61L16.0005 27.9991L23.614 43.9664Z" fill="#5A2D00"/>
<path d="M43.2729 29.7314L44.2163 37.7777L43.0552 43.7118L37.6792 43.7822L33.1501 36.7151L40.5845 35.3026L43.2729 29.7314V29.7314Z" fill="#986635"/>
</svg>
