<svg width="60" height="61" viewBox="0 0 60 61" fill="none" xmlns="http://www.w3.org/2000/svg">
<rect width="60" height="60" rx="30" transform="matrix(0.999914 -0.0130896 0 1 0 0.7854)" fill="#C4E2FF"/>
<g clip-path="url(#clip0_476_563)">
<path d="M47.3955 36.9766L44.7551 35.4877L46.7861 34.9142C47.4267 34.734 47.8095 34.0649 47.6376 33.4265L47.3251 32.2666C47.1533 31.6282 46.4893 31.2541 45.8487 31.4343L40.3179 32.9911L35.3262 30.1658L40.3101 27.2178L45.8409 28.6297C46.4815 28.7932 47.1455 28.4017 47.3173 27.7589L47.6298 26.5907C47.8017 25.9478 47.4189 25.2888 46.7783 25.1253L44.7472 24.605L47.3876 23.047C47.9657 22.7035 48.161 21.9666 47.8329 21.3927L46.6221 19.3148C46.2862 18.7411 45.5519 18.5554 44.9738 18.8911L42.3334 20.4491L42.8802 18.4107C43.0521 17.7678 42.6693 17.1088 42.0287 16.9453L40.8648 16.648C40.2242 16.4845 39.5602 16.876 39.3883 17.5189L37.9041 23.0696L32.9982 25.9619V19.9072L37.1932 15.657C37.6775 15.1663 37.6775 14.3694 37.1932 13.8914L36.3105 13.0201C35.8261 12.5421 35.0293 12.5525 34.545 13.0432L32.9982 14.6026V11.4463C32.9982 10.7588 32.4358 10.2037 31.7484 10.2127L29.2486 10.2454C28.5611 10.2544 27.9987 10.8243 27.9987 11.5118V14.668L26.4597 13.1491C25.9754 12.671 25.1786 12.6815 24.6943 13.1722L23.8037 14.0667C23.3116 14.5575 23.3116 15.3544 23.8037 15.8323L27.9987 19.9727V26.0274L23.0928 23.2635L21.6086 17.7517C21.4367 17.1133 20.7727 16.7392 20.1322 16.9194L18.9682 17.2472C18.3276 17.4274 17.9448 18.0965 18.1167 18.7349L18.6635 20.759L16.0231 19.2701C15.4451 18.9417 14.7108 19.1544 14.3748 19.737L13.164 21.8388C12.8281 22.4213 13.0312 23.153 13.6093 23.4814L16.2497 24.9702L14.2186 25.5437C13.5702 25.7241 13.1874 26.3931 13.3593 27.0393L13.6718 28.1993C13.8436 28.8377 14.5076 29.2118 15.1482 29.0315L20.679 27.4748L25.6629 30.2923L20.679 33.2404L15.1482 31.8284C14.5076 31.6649 13.8436 32.0564 13.6718 32.6993L13.3593 33.8675C13.1874 34.5103 13.5702 35.1694 14.2108 35.3329L16.2419 35.8532L13.6015 37.419C13.0234 37.7625 12.8281 38.4994 13.1562 39.0732L14.367 41.1511C14.7029 41.7249 15.4373 41.9106 16.0153 41.5749L18.6557 40.0169L18.1089 42.0553C17.937 42.6982 18.3198 43.3572 18.9604 43.5207L20.1244 43.818C20.7649 43.9814 21.4289 43.5899 21.6008 42.9471L23.085 37.3964L27.9909 34.504V40.5587L23.7959 44.809C23.3038 45.2998 23.3038 46.0966 23.7959 46.5746L24.6786 47.4458C25.163 47.9239 25.9598 47.9134 26.4441 47.4227L27.9831 45.8635V49.012C27.9831 49.6995 28.5455 50.2546 29.2329 50.2456L31.7327 50.2129C32.4202 50.2039 32.9826 49.634 32.9826 48.9465V45.7903L34.5216 47.3092C35.0059 47.7872 35.8027 47.7768 36.287 47.2861L37.1698 46.3917C37.6541 45.901 37.6541 45.1041 37.1698 44.6261L32.9982 40.4854V34.4307L37.9041 37.1946L39.3883 42.7064C39.5602 43.3448 40.2242 43.7189 40.8648 43.5386L42.0287 43.2109C42.6693 43.0306 43.0521 42.3616 42.8802 41.7232L42.3334 39.6991L44.9738 41.188C45.5519 41.5163 46.2862 41.3036 46.6221 40.7211L47.8329 38.6115C48.1688 38.0368 47.9735 37.2971 47.3955 36.9766Z" fill="#F4F9FF"/>
</g>
<defs>
<clipPath id="clip0_476_563">
<rect width="35" height="40" fill="white" transform="matrix(0.999914 -0.0130896 0 1 13 10.4581)"/>
</clipPath>
</defs>
</svg>
