<svg width="60" height="61" viewBox="0 0 60 61" fill="none" xmlns="http://www.w3.org/2000/svg">
<rect width="60" height="60" rx="30" transform="matrix(0.999914 -0.0130896 0 1 0 0.7854)" fill="#D5D5D5"/>
<path d="M25.0801 22.9403C26.5633 23.9997 28.0031 23.3798 28.282 21.5639L29.4908 13.6936C29.7697 11.8778 30.2252 11.8718 30.504 13.6804L31.7128 21.519C31.9917 23.3276 33.4327 23.9087 34.9148 22.8115L41.7453 17.7543C43.2274 16.656 43.5585 16.9828 42.4797 18.4803L37.5123 25.3753C36.4335 26.8728 37.0335 28.3049 38.8455 28.5601L46.7004 29.6661C48.5125 29.9213 48.5125 30.3769 46.7004 30.6795L38.8455 31.9912C37.0335 32.2938 36.4335 33.7428 37.5123 35.2109L42.4797 41.9769C43.5585 43.445 43.2274 43.7805 41.7453 42.721L34.9148 37.8426C33.4327 36.7832 31.9917 37.402 31.7128 39.2179L30.504 47.0893C30.2252 48.9051 29.7697 48.9111 29.4908 47.1025L28.282 39.2628C28.0031 37.4542 26.5622 36.8731 25.0801 37.9714L18.2506 43.0286C16.7685 44.1269 16.4941 43.8438 17.644 42.3998L23.2935 35.2992C24.4423 33.8553 23.8957 32.488 22.0803 32.2618L13.1289 31.1423C11.3135 30.9149 11.309 30.4772 13.12 30.1691L21.1504 28.8028C22.9613 28.4947 23.5613 27.0402 22.4825 25.5721L17.5151 18.8071C16.4364 17.339 16.7674 17.0035 18.2495 18.063L25.0801 22.9403Z" fill="#31373D"/>
</svg>
