<svg width="60" height="61" viewBox="0 0 60 61" fill="none" xmlns="http://www.w3.org/2000/svg">
<mask id="mask0_476_427" style="mask-type:alpha" maskUnits="userSpaceOnUse" x="11" y="12" width="38" height="37">
<path d="M28.3308 47.0812C35.694 46.9848 41.663 41.6833 41.663 35.24C41.663 28.7967 35.694 23.6514 28.3308 23.7478C20.9677 23.8442 14.9987 29.1457 14.9987 35.589C14.9987 42.0324 20.9677 47.1776 28.3308 47.0812Z" fill="#555555" stroke="white" stroke-width="3.33333" stroke-linecap="round" stroke-linejoin="round"/>
<path d="M31.6639 30.3708C32.7747 30.4955 34.997 31.1606 35.8302 34.483" stroke="white" stroke-width="3.33333" stroke-linecap="round"/>
<path d="M16.6652 20.5672C18.506 20.5432 19.9982 19.0312 19.9982 17.1903C19.9982 15.3493 18.506 13.8765 16.6652 13.9006C14.8244 13.9247 13.3322 15.4366 13.3322 17.2775C13.3322 19.1185 14.8244 20.5913 16.6652 20.5672Z" fill="#555555" stroke="white" stroke-width="3.33333" stroke-linecap="round" stroke-linejoin="round"/>
<path d="M44.1629 23.5406C45.5435 23.5226 46.6627 22.3886 46.6627 21.0079C46.6627 19.6272 45.5435 18.5226 44.1629 18.5406C42.7823 18.5587 41.6631 19.6927 41.6631 21.0734C41.6631 22.4541 42.7823 23.5587 44.1629 23.5406Z" fill="#555555" stroke="white" stroke-width="3.33333" stroke-linecap="round" stroke-linejoin="round"/>
</mask>
<g mask="url(#mask0_476_427)">
<path d="M9.99915 10.6545L49.9957 10.131V50.131L9.99915 50.6545V10.6545Z" fill="#9747FF"/>
</g>
<rect width="60" height="60" rx="30" transform="matrix(0.999914 -0.0130896 0 1 0 0.7854)" fill="#D2AFFF"/>
<path d="M22.635 31.5687C27.4041 31.5063 31.27 27.5894 31.27 22.8199C31.27 18.0505 27.4041 14.2348 22.635 14.2972C17.8659 14.3597 14 18.2765 14 23.046C14 27.8155 17.8659 31.6312 22.635 31.5687ZM39.7764 29.2334C41.1154 29.2158 42.3995 28.6671 43.3463 27.7078C44.2931 26.7485 44.825 25.4573 44.825 24.1183C44.825 22.7792 44.2931 21.5019 43.3463 20.5674C42.3995 19.6329 41.1154 19.1178 39.7764 19.1353C38.4375 19.1528 37.1533 19.7016 36.2065 20.6609C35.2598 21.6201 34.7278 22.9113 34.7278 24.2504C34.7278 25.5895 35.2598 26.8668 36.2065 27.8013C37.1533 28.7358 38.4375 29.2509 39.7764 29.2334V29.2334ZM35.1078 44.8388C38.6405 44.7926 41.5041 41.8912 41.5041 38.3583C41.5041 34.8253 38.6405 31.9989 35.1078 32.0451C31.5751 32.0914 28.7115 34.9927 28.7115 38.5257C28.7115 42.0587 31.5751 44.8851 35.1078 44.8388Z" fill="#D800DC"/>
<path d="M32.5491 36.6147C32.8603 36.0479 33.3239 35.5782 33.8865 35.2596" stroke="white" stroke-width="2.22222" stroke-linecap="round" stroke-linejoin="round"/>
<path d="M37.9863 22.7321C38.1353 22.4611 38.357 22.2365 38.626 22.084" stroke="white" stroke-width="1.66667" stroke-linecap="round" stroke-linejoin="round"/>
<path d="M18.4771 20.3302C18.9752 19.4233 19.7169 18.6717 20.6173 18.1618" stroke="white" stroke-width="2.22222" stroke-linecap="round" stroke-linejoin="round"/>
</svg>
