<svg width="60" height="61" viewBox="0 0 60 61" fill="none" xmlns="http://www.w3.org/2000/svg">
<path d="M48.6364 29.6488C48.5895 29.5244 47.2615 26.6043 44.3243 23.6896C40.4027 19.8347 35.45 17.8214 29.9974 17.8928C24.5447 17.9642 19.592 20.1071 15.6705 24.0647C12.7332 27.0563 11.4052 30.0112 11.3584 30.1368C11.2886 30.2952 11.2526 30.466 11.2526 30.6382C11.2526 30.8104 11.2886 30.9803 11.3584 31.1368C11.4052 31.2612 12.7332 34.1813 15.6705 37.096C19.592 40.9509 24.5447 42.9642 29.9974 42.8928C35.45 42.8214 40.4027 40.6785 44.3243 36.7209C47.2615 33.7293 48.5895 30.7744 48.6364 30.6488C48.7062 30.4904 48.7422 30.3196 48.7422 30.1474C48.7422 29.9752 48.7062 29.8054 48.6364 29.6488ZM29.9974 40.3928C25.1853 40.4558 20.9825 38.7608 17.5141 35.3531C16.0807 33.96 14.8644 32.3594 13.905 30.6035C14.8631 28.8169 16.0794 27.1791 17.5141 25.7437C20.9825 22.2608 25.1853 20.4558 29.9974 20.3928C34.8095 20.3298 39.0122 22.0248 42.4807 25.4169C43.9153 26.8147 45.1316 28.4206 46.0897 30.1821C44.9648 32.3062 40.059 40.2611 29.9974 40.3928ZM29.9974 22.8928C28.5141 22.9122 27.0642 23.3711 25.831 24.2113C24.5977 25.0516 23.6365 26.2355 23.0689 27.6134C22.5013 28.9913 22.3528 30.5012 22.6421 31.9523C22.9315 33.4033 23.6457 34.7304 24.6945 35.7655C25.7433 36.8007 27.0796 37.4975 28.5343 37.7678C29.9891 38.0382 31.4969 37.8699 32.8673 37.2843C34.2376 36.6987 35.4088 35.7221 36.2329 34.478C37.0569 33.2338 37.4967 31.778 37.4967 30.2946C37.4967 28.3055 36.7066 26.4082 35.3002 25.0201C33.8938 23.632 31.9863 22.8668 29.9974 22.8928ZM29.9974 35.3928C29.0086 35.4057 28.0419 35.1252 27.2198 34.5865C26.3976 34.0479 25.7568 33.2754 25.3784 32.3667C25 31.458 24.901 30.454 25.0939 29.4815C25.2868 28.5091 25.7629 27.612 26.4622 26.9035C27.1614 26.1951 28.0522 25.7073 29.022 25.5016C29.9918 25.296 30.9971 25.3819 31.9106 25.7484C32.8242 26.1148 33.605 26.7455 34.1544 27.5605C34.7037 28.3756 34.997 29.3384 34.997 30.3274C34.9928 31.6522 34.4648 32.9285 33.5281 33.8776C32.5914 34.8266 31.3221 35.3713 29.9974 35.3928Z" fill="#9747FF"/>
<rect width="60" height="60" rx="30" transform="matrix(0.999914 -0.0130896 0 1 0 0.7854)" fill="#F9D5FF"/>
<g clip-path="url(#clip0_476_544)">
<path d="M47.4188 28.2004C48.3085 29.3526 48.3085 30.9238 47.4188 32.0974C44.6164 35.7927 37.8929 43.4138 30.0433 43.5166C22.1937 43.6193 15.4702 36.1743 12.6678 32.5523C12.235 32.0007 12 31.3182 12 30.6126C12 29.9069 12.235 29.2183 12.6678 28.6553C15.4702 24.9601 22.1937 17.339 30.0433 17.2362C37.8929 17.1335 44.6164 24.5785 47.4188 28.2004V28.2004Z" stroke="#9747FF" stroke-width="4" stroke-linecap="round" stroke-linejoin="round"/>
<path d="M30 38.1061C34.4183 38.0483 38 34.4194 38 30.0007C38 25.5821 34.4183 22.0469 30 22.1047C25.5817 22.1626 22 25.7915 22 30.2102C22 34.6288 25.5817 38.164 30 38.1061Z" stroke="#9747FF" stroke-width="5" stroke-linecap="round" stroke-linejoin="round"/>
</g>
<defs>
<clipPath id="clip0_476_544">
<rect width="40" height="40" fill="white" transform="matrix(0.999914 -0.0130896 0 1 9.99915 10.6545)"/>
</clipPath>
</defs>
</svg>
