<svg width="60" height="61" viewBox="0 0 60 61" fill="none" xmlns="http://www.w3.org/2000/svg">
<rect width="60" height="60" rx="30" transform="matrix(0.999914 -0.0130896 0 1 0 0.7854)" fill="#4A4A4A"/>
<g clip-path="url(#clip0_482_33)">
<path d="M29.9974 10.3927C18.9534 10.5373 9.99916 19.6095 9.99916 30.6545C9.99613 33.4379 10.5755 36.1835 11.7 38.7148C12.8245 41.2461 14.4693 43.5071 16.5286 45.3524C16.307 44.6407 16.1946 43.8982 16.1953 43.1501C16.1958 41.7861 16.5721 40.4437 17.283 39.2703C17.9938 38.0969 19.0117 37.138 20.2248 36.4987C21.4379 35.8595 22.7993 35.5647 24.1595 35.6467C25.5197 35.7287 26.8261 36.1844 27.9352 36.9637C29.0443 37.743 29.9132 38.8158 30.4465 40.0642C30.9798 41.3126 31.1569 42.6884 30.9582 44.0404C30.7596 45.3925 30.1929 46.6685 29.3205 47.7283C28.448 48.7882 27.3036 49.5909 26.0128 50.0482C27.301 50.2914 28.6326 50.4106 29.9974 50.3927C41.0415 50.2482 49.9957 41.176 49.9957 30.131C49.9957 19.086 41.0415 10.2482 29.9974 10.3927Z" fill="#232323"/>
</g>
<defs>
<clipPath id="clip0_482_33">
<rect width="40" height="40" fill="white" transform="matrix(0.999914 -0.0130896 0 1 9.99915 10.6545)"/>
</clipPath>
</defs>
</svg>
