<svg width="60" height="61" viewBox="0 0 60 61" fill="none" xmlns="http://www.w3.org/2000/svg">
<rect width="60" height="60" rx="30" transform="matrix(0.999914 -0.0130896 0 1 0 0.7854)" fill="#D5D5D5"/>
<path d="M31.18 18.584C33.556 18.584 35.476 19.256 36.94 20.6C38.404 21.944 39.136 23.744 39.136 26C39.136 28.52 38.356 30.392 36.796 31.616C35.236 32.816 33.124 33.416 30.46 33.416L30.352 36.836L27.508 36.836L27.364 31.148L28.408 31.148C30.784 31.148 32.644 30.788 33.988 30.068C35.332 29.348 36.004 27.992 36.004 26C36.004 24.56 35.572 23.42 34.708 22.58C33.844 21.74 32.68 21.32 31.216 21.32C29.728 21.32 28.552 21.728 27.688 22.544C26.848 23.336 26.428 24.428 26.428 25.82L23.332 25.82C23.332 24.38 23.656 23.12 24.304 22.04C24.952 20.936 25.864 20.084 27.04 19.484C28.24 18.884 29.62 18.584 31.18 18.584ZM28.912 44.216C28.288 44.216 27.76 44 27.328 43.568C26.896 43.136 26.68 42.608 26.68 41.984C26.68 41.36 26.896 40.832 27.328 40.4C27.76 39.968 28.288 39.752 28.912 39.752C29.512 39.752 30.016 39.968 30.424 40.4C30.856 40.832 31.072 41.36 31.072 41.984C31.072 42.608 30.856 43.136 30.424 43.568C30.016 44 29.512 44.216 28.912 44.216Z" fill="black"/>
</svg>
