<svg width="60" height="61" viewBox="0 0 60 61" fill="none" xmlns="http://www.w3.org/2000/svg">
<rect width="60" height="60" rx="30" transform="matrix(0.999914 -0.0130896 0 1 0 0.7854)" fill="#E3EDFF"/>
<path d="M30.7099 15.0802C30.6219 14.9786 30.5127 14.8975 30.3898 14.8425C30.2668 14.7876 30.1331 14.76 29.9978 14.7618C29.8625 14.7636 29.7288 14.7946 29.6059 14.8528C29.483 14.911 29.3738 14.9949 29.2858 15.0989C26.8126 18.0242 18.7484 28.1313 18.7484 35.5399C18.7484 42.4438 23.0949 46.733 29.9974 46.6427C36.9 46.5523 41.2465 42.1493 41.2465 35.2454C41.2465 27.8368 33.1823 17.9408 30.7099 15.0802ZM31.2473 42.5638C31.0972 42.5661 30.9492 42.5323 30.8157 42.4652C30.6823 42.3982 30.5673 42.2998 30.4805 42.1784C30.3937 42.0571 30.3375 41.9162 30.3168 41.7678C30.2961 41.6193 30.3114 41.4676 30.3615 41.3254C30.4254 41.1398 30.546 40.9784 30.706 40.8641C30.866 40.7498 31.0574 40.6884 31.2528 40.6887C32.4936 40.6698 33.6829 40.1601 34.5603 39.2711C35.4377 38.3822 35.9318 37.1864 35.9344 35.9454C35.9316 35.75 35.9904 35.5579 36.1027 35.3964C36.2149 35.2348 36.3747 35.1122 36.5594 35.0458C36.7009 34.9939 36.8525 34.9766 37.0012 34.9954C37.1499 35.0141 37.2914 35.0684 37.4139 35.1537C37.5364 35.2389 37.6363 35.3525 37.7051 35.4851C37.7739 35.6177 37.8096 35.7652 37.8093 35.9154C37.8074 37.6553 37.1155 39.3325 35.8853 40.5789C34.6551 41.8253 32.9871 42.5392 31.2473 42.5638Z" fill="#699BF7"/>
</svg>
