<svg width="1163" height="1163" viewBox="0 0 1163 1163" fill="none" xmlns="http://www.w3.org/2000/svg">
<path d="M581.467 1121.58C879.765 1121.58 1121.58 879.765 1121.58 581.467C1121.58 283.169 879.765 41.3511 581.467 41.3511C283.169 41.3511 41.3511 283.169 41.3511 581.467C41.3511 879.765 283.169 1121.58 581.467 1121.58Z" fill="#EAEAEA" stroke="#F7F7F7" stroke-width="82" stroke-linecap="round" stroke-linejoin="round"/>
<path d="M581.467 761.506C680.9 761.506 761.506 680.9 761.506 581.467C761.506 482.034 680.9 401.428 581.467 401.428C482.035 401.428 401.429 482.034 401.429 581.467C401.429 680.9 482.035 761.506 581.467 761.506Z" fill="#EAEAEA" stroke="#F7F7F7" stroke-width="82" stroke-linecap="round" stroke-linejoin="round"/>
<path d="M41.3511 581.467H401.428ZM761.506 581.467H1121.58Z" fill="#EAEAEA"/>
<path d="M41.3511 581.467H401.428M761.506 581.467H1121.58" stroke="#F7F7F7" stroke-width="82" stroke-linecap="round" stroke-linejoin="round"/>
</svg>
